<svg xmlns="http://www.w3.org/2000/svg" version="1.1" xmlns:xlink="http://www.w3.org/1999/xlink" xmlns:svgjs="http://svgjs.dev/svgjs" width="1440" height="560" preserveAspectRatio="none" viewBox="0 0 1440 560"><g mask="url(&quot;#SvgjsMask1000&quot;)" fill="none"><rect width="1440" height="560" x="0" y="0" fill="#0e2a47"></rect><path d="M-100.75 390.87L-100.75 390.87" stroke="#132e65" stroke-width="1.5"></path><path d="M-100.75 390.87L48.93 385.36" stroke="#132e65" stroke-width="1.5"></path><path d="M-100.75 390.87L-99.24 550.23" stroke="#132e65" stroke-width="1.5"></path><path d="M-100.75 390.87L111.09 514.46" stroke="#132e65" stroke-width="1.5"></path><path d="M-99.24 550.23L-99.24 550.23" stroke="#132e65" stroke-width="1.5"></path><path d="M-99.24 550.23L-54.6 664.2" stroke="#132e65" stroke-width="1.5"></path><path d="M-99.24 550.23L71.35 665.81" stroke="#132e65" stroke-width="1.5"></path><path d="M-99.24 550.23L111.09 514.46" stroke="#132e65" stroke-width="1.5"></path><path d="M-99.24 550.23L48.93 385.36" stroke="#132e65" stroke-width="1.5"></path><path d="M-99.24 550.23L221.14 526.57" stroke="#132e65" stroke-width="1.5"></path><path d="M-54.6 664.2L-54.6 664.2" stroke="#132e65" stroke-width="1.5"></path><path d="M-54.6 664.2L71.35 665.81" stroke="#132e65" stroke-width="1.5"></path><path d="M-54.6 664.2L111.09 514.46" stroke="#132e65" stroke-width="1.5"></path><path d="M-54.6 664.2L218.96 665.39" stroke="#132e65" stroke-width="1.5"></path><path d="M48.93 385.36L48.93 385.36" stroke="#132e65" stroke-width="1.5"></path><path d="M48.93 385.36L111.09 514.46" stroke="#132e65" stroke-width="1.5"></path><path d="M48.93 385.36L202.11 354.41" stroke="#132e65" stroke-width="1.5"></path><path d="M111.09 514.46L111.09 514.46" stroke="#132e65" stroke-width="1.5"></path><path d="M111.09 514.46L221.14 526.57" stroke="#132e65" stroke-width="1.5"></path><path d="M71.35 665.81L71.35 665.81" stroke="#132e65" stroke-width="1.5"></path><path d="M71.35 665.81L218.96 665.39" stroke="#132e65" stroke-width="1.5"></path><path d="M71.35 665.81L111.09 514.46" stroke="#132e65" stroke-width="1.5"></path><path d="M71.35 665.81L221.14 526.57" stroke="#132e65" stroke-width="1.5"></path><path d="M202.11 354.41L202.11 354.41" stroke="#132e65" stroke-width="1.5"></path><path d="M202.11 354.41L221.14 526.57" stroke="#132e65" stroke-width="1.5"></path><path d="M202.11 354.41L111.09 514.46" stroke="#132e65" stroke-width="1.5"></path><path d="M202.11 354.41L363.27 528.88" stroke="#132e65" stroke-width="1.5"></path><path d="M202.11 354.41L-100.75 390.87" stroke="#132e65" stroke-width="1.5"></path><path d="M202.11 354.41L218.96 665.39" stroke="#132e65" stroke-width="1.5"></path><path d="M221.14 526.57L221.14 526.57" stroke="#132e65" stroke-width="1.5"></path><path d="M221.14 526.57L218.96 665.39" stroke="#132e65" stroke-width="1.5"></path><path d="M218.96 665.39L218.96 665.39" stroke="#132e65" stroke-width="1.5"></path><path d="M218.96 665.39L339.91 677.73" stroke="#132e65" stroke-width="1.5"></path><path d="M363.27 528.88L363.27 528.88" stroke="#132e65" stroke-width="1.5"></path><path d="M363.27 528.88L221.14 526.57" stroke="#132e65" stroke-width="1.5"></path><path d="M363.27 528.88L508.14 498.72" stroke="#132e65" stroke-width="1.5"></path><path d="M363.27 528.88L339.91 677.73" stroke="#132e65" stroke-width="1.5"></path><path d="M339.91 677.73L339.91 677.73" stroke="#132e65" stroke-width="1.5"></path><path d="M339.91 677.73L221.14 526.57" stroke="#132e65" stroke-width="1.5"></path><path d="M339.91 677.73L531.9 648.75" stroke="#132e65" stroke-width="1.5"></path><path d="M534.48 343.96L534.48 343.96" stroke="#132e65" stroke-width="1.5"></path><path d="M534.48 343.96L508.14 498.72" stroke="#132e65" stroke-width="1.5"></path><path d="M534.48 343.96L646.22 488.32" stroke="#132e65" stroke-width="1.5"></path><path d="M508.14 498.72L508.14 498.72" stroke="#132e65" stroke-width="1.5"></path><path d="M508.14 498.72L646.22 488.32" stroke="#132e65" stroke-width="1.5"></path><path d="M531.9 648.75L531.9 648.75" stroke="#132e65" stroke-width="1.5"></path><path d="M531.9 648.75L508.14 498.72" stroke="#132e65" stroke-width="1.5"></path><path d="M646.22 488.32L646.22 488.32" stroke="#132e65" stroke-width="1.5"></path><path d="M646.22 488.32L798.46 539.55" stroke="#132e65" stroke-width="1.5"></path><path d="M646.22 488.32L531.9 648.75" stroke="#132e65" stroke-width="1.5"></path><path d="M691.08 704.58L691.08 704.58" stroke="#132e65" stroke-width="1.5"></path><path d="M691.08 704.58L798.56 665.52" stroke="#132e65" stroke-width="1.5"></path><path d="M691.08 704.58L531.9 648.75" stroke="#132e65" stroke-width="1.5"></path><path d="M691.08 704.58L798.46 539.55" stroke="#132e65" stroke-width="1.5"></path><path d="M691.08 704.58L646.22 488.32" stroke="#132e65" stroke-width="1.5"></path><path d="M831.29 235.39L831.29 235.39" stroke="#132e65" stroke-width="1.5"></path><path d="M831.29 235.39L825.46 366.37" stroke="#132e65" stroke-width="1.5"></path><path d="M831.29 235.39L985.46 408.84" stroke="#132e65" stroke-width="1.5"></path><path d="M831.29 235.39L1001.39 45.57" stroke="#132e65" stroke-width="1.5"></path><path d="M825.46 366.37L825.46 366.37" stroke="#132e65" stroke-width="1.5"></path><path d="M825.46 366.37L985.46 408.84" stroke="#132e65" stroke-width="1.5"></path><path d="M825.46 366.37L798.46 539.55" stroke="#132e65" stroke-width="1.5"></path><path d="M825.46 366.37L957.06 533.85" stroke="#132e65" stroke-width="1.5"></path><path d="M825.46 366.37L646.22 488.32" stroke="#132e65" stroke-width="1.5"></path><path d="M825.46 366.37L534.48 343.96" stroke="#132e65" stroke-width="1.5"></path><path d="M798.46 539.55L798.46 539.55" stroke="#132e65" stroke-width="1.5"></path><path d="M798.46 539.55L798.56 665.52" stroke="#132e65" stroke-width="1.5"></path><path d="M798.46 539.55L957.06 533.85" stroke="#132e65" stroke-width="1.5"></path><path d="M798.56 665.52L798.56 665.52" stroke="#132e65" stroke-width="1.5"></path><path d="M996.35 -80.2L996.35 -80.2" stroke="#132e65" stroke-width="1.5"></path><path d="M996.35 -80.2L1104.1 -104.84" stroke="#132e65" stroke-width="1.5"></path><path d="M996.35 -80.2L1001.39 45.57" stroke="#132e65" stroke-width="1.5"></path><path d="M996.35 -80.2L1107.24 82.87" stroke="#132e65" stroke-width="1.5"></path><path d="M996.35 -80.2L1244.25 -98.91" stroke="#132e65" stroke-width="1.5"></path><path d="M996.35 -80.2L1268.83 52.31" stroke="#132e65" stroke-width="1.5"></path><path d="M996.35 -80.2L831.29 235.39" stroke="#132e65" stroke-width="1.5"></path><path d="M1001.39 45.57L1001.39 45.57" stroke="#132e65" stroke-width="1.5"></path><path d="M1001.39 45.57L1107.24 82.87" stroke="#132e65" stroke-width="1.5"></path><path d="M1001.39 45.57L1104.1 -104.84" stroke="#132e65" stroke-width="1.5"></path><path d="M1001.39 45.57L1268.83 52.31" stroke="#132e65" stroke-width="1.5"></path><path d="M1001.39 45.57L1244.25 -98.91" stroke="#132e65" stroke-width="1.5"></path><path d="M985.46 408.84L985.46 408.84" stroke="#132e65" stroke-width="1.5"></path><path d="M985.46 408.84L957.06 533.85" stroke="#132e65" stroke-width="1.5"></path><path d="M985.46 408.84L1157.21 376.47" stroke="#132e65" stroke-width="1.5"></path><path d="M985.46 408.84L1136.22 527.64" stroke="#132e65" stroke-width="1.5"></path><path d="M985.46 408.84L798.46 539.55" stroke="#132e65" stroke-width="1.5"></path><path d="M957.06 533.85L957.06 533.85" stroke="#132e65" stroke-width="1.5"></path><path d="M957.06 533.85L973.76 648.62" stroke="#132e65" stroke-width="1.5"></path><path d="M973.76 648.62L973.76 648.62" stroke="#132e65" stroke-width="1.5"></path><path d="M973.76 648.62L798.56 665.52" stroke="#132e65" stroke-width="1.5"></path><path d="M973.76 648.62L1146.81 705.46" stroke="#132e65" stroke-width="1.5"></path><path d="M973.76 648.62L1136.22 527.64" stroke="#132e65" stroke-width="1.5"></path><path d="M973.76 648.62L798.46 539.55" stroke="#132e65" stroke-width="1.5"></path><path d="M973.76 648.62L985.46 408.84" stroke="#132e65" stroke-width="1.5"></path><path d="M1104.1 -104.84L1104.1 -104.84" stroke="#132e65" stroke-width="1.5"></path><path d="M1104.1 -104.84L1244.25 -98.91" stroke="#132e65" stroke-width="1.5"></path><path d="M1104.1 -104.84L1107.24 82.87" stroke="#132e65" stroke-width="1.5"></path><path d="M1104.1 -104.84L1268.83 52.31" stroke="#132e65" stroke-width="1.5"></path><path d="M1104.1 -104.84L1433.55 55.21" stroke="#132e65" stroke-width="1.5"></path><path d="M1107.24 82.87L1107.24 82.87" stroke="#132e65" stroke-width="1.5"></path><path d="M1107.24 82.87L1268.83 52.31" stroke="#132e65" stroke-width="1.5"></path><path d="M1157.21 376.47L1157.21 376.47" stroke="#132e65" stroke-width="1.5"></path><path d="M1157.21 376.47L1242.87 385.11" stroke="#132e65" stroke-width="1.5"></path><path d="M1157.21 376.47L1136.22 527.64" stroke="#132e65" stroke-width="1.5"></path><path d="M1136.22 527.64L1136.22 527.64" stroke="#132e65" stroke-width="1.5"></path><path d="M1136.22 527.64L1297.85 558.95" stroke="#132e65" stroke-width="1.5"></path><path d="M1136.22 527.64L1242.87 385.11" stroke="#132e65" stroke-width="1.5"></path><path d="M1136.22 527.64L1146.81 705.46" stroke="#132e65" stroke-width="1.5"></path><path d="M1136.22 527.64L957.06 533.85" stroke="#132e65" stroke-width="1.5"></path><path d="M1146.81 705.46L1146.81 705.46" stroke="#132e65" stroke-width="1.5"></path><path d="M1146.81 705.46L1292.42 679.34" stroke="#132e65" stroke-width="1.5"></path><path d="M1146.81 705.46L1297.85 558.95" stroke="#132e65" stroke-width="1.5"></path><path d="M1244.25 -98.91L1244.25 -98.91" stroke="#132e65" stroke-width="1.5"></path><path d="M1268.83 52.31L1268.83 52.31" stroke="#132e65" stroke-width="1.5"></path><path d="M1268.83 52.31L1244.25 -98.91" stroke="#132e65" stroke-width="1.5"></path><path d="M1268.83 52.31L1309.86 203.69" stroke="#132e65" stroke-width="1.5"></path><path d="M1268.83 52.31L1433.55 55.21" stroke="#132e65" stroke-width="1.5"></path><path d="M1309.86 203.69L1309.86 203.69" stroke="#132e65" stroke-width="1.5"></path><path d="M1309.86 203.69L1462.15 249.55" stroke="#132e65" stroke-width="1.5"></path><path d="M1309.86 203.69L1433.55 55.21" stroke="#132e65" stroke-width="1.5"></path><path d="M1309.86 203.69L1242.87 385.11" stroke="#132e65" stroke-width="1.5"></path><path d="M1309.86 203.69L1424.55 396.23" stroke="#132e65" stroke-width="1.5"></path><path d="M1242.87 385.11L1242.87 385.11" stroke="#132e65" stroke-width="1.5"></path><path d="M1297.85 558.95L1297.85 558.95" stroke="#132e65" stroke-width="1.5"></path><path d="M1297.85 558.95L1292.42 679.34" stroke="#132e65" stroke-width="1.5"></path><path d="M1297.85 558.95L1459.07 539.5" stroke="#132e65" stroke-width="1.5"></path><path d="M1297.85 558.95L1242.87 385.11" stroke="#132e65" stroke-width="1.5"></path><path d="M1292.42 679.34L1292.42 679.34" stroke="#132e65" stroke-width="1.5"></path><path d="M1292.42 679.34L1450.69 659.66" stroke="#132e65" stroke-width="1.5"></path><path d="M1292.42 679.34L1459.07 539.5" stroke="#132e65" stroke-width="1.5"></path><path d="M1292.42 679.34L1136.22 527.64" stroke="#132e65" stroke-width="1.5"></path><path d="M1292.42 679.34L1554.62 676" stroke="#132e65" stroke-width="1.5"></path><path d="M1433.55 55.21L1433.55 55.21" stroke="#132e65" stroke-width="1.5"></path><path d="M1433.55 55.21L1601.49 57.64" stroke="#132e65" stroke-width="1.5"></path><path d="M1433.55 55.21L1540.07 204.45" stroke="#132e65" stroke-width="1.5"></path><path d="M1433.55 55.21L1462.15 249.55" stroke="#132e65" stroke-width="1.5"></path><path d="M1462.15 249.55L1462.15 249.55" stroke="#132e65" stroke-width="1.5"></path><path d="M1462.15 249.55L1540.07 204.45" stroke="#132e65" stroke-width="1.5"></path><path d="M1462.15 249.55L1542.46 356.75" stroke="#132e65" stroke-width="1.5"></path><path d="M1424.55 396.23L1424.55 396.23" stroke="#132e65" stroke-width="1.5"></path><path d="M1424.55 396.23L1542.46 356.75" stroke="#132e65" stroke-width="1.5"></path><path d="M1424.55 396.23L1459.07 539.5" stroke="#132e65" stroke-width="1.5"></path><path d="M1424.55 396.23L1462.15 249.55" stroke="#132e65" stroke-width="1.5"></path><path d="M1424.55 396.23L1242.87 385.11" stroke="#132e65" stroke-width="1.5"></path><path d="M1459.07 539.5L1459.07 539.5" stroke="#132e65" stroke-width="1.5"></path><path d="M1459.07 539.5L1450.69 659.66" stroke="#132e65" stroke-width="1.5"></path><path d="M1459.07 539.5L1595.88 520.8" stroke="#132e65" stroke-width="1.5"></path><path d="M1450.69 659.66L1450.69 659.66" stroke="#132e65" stroke-width="1.5"></path><path d="M1450.69 659.66L1554.62 676" stroke="#132e65" stroke-width="1.5"></path><path d="M1601.49 57.64L1601.49 57.64" stroke="#132e65" stroke-width="1.5"></path><path d="M1601.49 57.64L1540.07 204.45" stroke="#132e65" stroke-width="1.5"></path><path d="M1540.07 204.45L1540.07 204.45" stroke="#132e65" stroke-width="1.5"></path><path d="M1540.07 204.45L1542.46 356.75" stroke="#132e65" stroke-width="1.5"></path><path d="M1542.46 356.75L1542.46 356.75" stroke="#132e65" stroke-width="1.5"></path><path d="M1542.46 356.75L1595.88 520.8" stroke="#132e65" stroke-width="1.5"></path><path d="M1595.88 520.8L1595.88 520.8" stroke="#132e65" stroke-width="1.5"></path><path d="M1595.88 520.8L1554.62 676" stroke="#132e65" stroke-width="1.5"></path><path d="M1595.88 520.8L1450.69 659.66" stroke="#132e65" stroke-width="1.5"></path><path d="M1554.62 676L1554.62 676" stroke="#132e65" stroke-width="1.5"></path><path d="M1554.62 676L1459.07 539.5" stroke="#132e65" stroke-width="1.5"></path><circle r="5" cx="-100.75" cy="390.87" fill="#132e65"></circle><circle r="5" cx="-99.24" cy="550.23" fill="#132e65"></circle><circle r="5" cx="-54.6" cy="664.2" fill="#132e65"></circle><circle r="5" cx="48.93" cy="385.36" fill="#132e65"></circle><circle r="5" cx="111.09" cy="514.46" fill="#132e65"></circle><circle r="5" cx="71.35" cy="665.81" fill="#132e65"></circle><circle r="5" cx="202.11" cy="354.41" fill="#132e65"></circle><circle r="5" cx="221.14" cy="526.57" fill="#132e65"></circle><circle r="5" cx="218.96" cy="665.39" fill="#132e65"></circle><circle r="5" cx="363.27" cy="528.88" fill="#132e65"></circle><circle r="5" cx="339.91" cy="677.73" fill="#132e65"></circle><circle r="5" cx="534.48" cy="343.96" fill="#132e65"></circle><circle r="5" cx="508.14" cy="498.72" fill="#132e65"></circle><circle r="5" cx="531.9" cy="648.75" fill="#132e65"></circle><circle r="5" cx="646.22" cy="488.32" fill="#132e65"></circle><circle r="5" cx="691.08" cy="704.58" fill="#132e65"></circle><circle r="5" cx="831.29" cy="235.39" fill="#132e65"></circle><circle r="5" cx="825.46" cy="366.37" fill="#132e65"></circle><circle r="5" cx="798.46" cy="539.55" fill="#132e65"></circle><circle r="5" cx="798.56" cy="665.52" fill="#132e65"></circle><circle r="5" cx="996.35" cy="-80.2" fill="#132e65"></circle><circle r="5" cx="1001.39" cy="45.57" fill="#132e65"></circle><circle r="5" cx="985.46" cy="408.84" fill="#132e65"></circle><circle r="5" cx="957.06" cy="533.85" fill="#132e65"></circle><circle r="5" cx="973.76" cy="648.62" fill="#132e65"></circle><circle r="5" cx="1104.1" cy="-104.84" fill="#132e65"></circle><circle r="5" cx="1107.24" cy="82.87" fill="#132e65"></circle><circle r="5" cx="1157.21" cy="376.47" fill="#132e65"></circle><circle r="5" cx="1136.22" cy="527.64" fill="#132e65"></circle><circle r="5" cx="1146.81" cy="705.46" fill="#132e65"></circle><circle r="5" cx="1244.25" cy="-98.91" fill="#132e65"></circle><circle r="5" cx="1268.83" cy="52.31" fill="#132e65"></circle><circle r="5" cx="1309.86" cy="203.69" fill="#132e65"></circle><circle r="5" cx="1242.87" cy="385.11" fill="#132e65"></circle><circle r="5" cx="1297.85" cy="558.95" fill="#132e65"></circle><circle r="5" cx="1292.42" cy="679.34" fill="#132e65"></circle><circle r="5" cx="1433.55" cy="55.21" fill="#132e65"></circle><circle r="5" cx="1462.15" cy="249.55" fill="#132e65"></circle><circle r="5" cx="1424.55" cy="396.23" fill="#132e65"></circle><circle r="5" cx="1459.07" cy="539.5" fill="#132e65"></circle><circle r="5" cx="1450.69" cy="659.66" fill="#132e65"></circle><circle r="5" cx="1601.49" cy="57.64" fill="#132e65"></circle><circle r="5" cx="1540.07" cy="204.45" fill="#132e65"></circle><circle r="5" cx="1542.46" cy="356.75" fill="#132e65"></circle><circle r="5" cx="1595.88" cy="520.8" fill="#132e65"></circle><circle r="5" cx="1554.62" cy="676" fill="#132e65"></circle><path d="M256.78 681.81L256.78 681.81" stroke="hsl(228.5, 77.2%, 51.5%)" stroke-width="1.5"></path><path d="M256.78 681.81L343.22 650.34" stroke="hsl(228.5, 77.2%, 51.5%)" stroke-width="1.5"></path><path d="M256.78 681.81L259.38 557.29" stroke="hsl(228.5, 77.2%, 51.5%)" stroke-width="1.5"></path><path d="M256.78 681.81L342.84 555.61" stroke="hsl(228.5, 77.2%, 51.5%)" stroke-width="1.5"></path><path d="M256.78 681.81L58.69 673.26" stroke="hsl(228.5, 77.2%, 51.5%)" stroke-width="1.5"></path><path d="M256.78 681.81L78.39 545.06" stroke="hsl(228.5, 77.2%, 51.5%)" stroke-width="1.5"></path><path d="M695.16 526.8L695.16 526.8" stroke="hsl(228.5, 77.2%, 51.5%)" stroke-width="1.5"></path><path d="M695.16 526.8L681.91 664.62" stroke="hsl(228.5, 77.2%, 51.5%)" stroke-width="1.5"></path><path d="M695.16 526.8L849.54 562.16" stroke="hsl(228.5, 77.2%, 51.5%)" stroke-width="1.5"></path><path d="M695.16 526.8L812.35 643.53" stroke="hsl(228.5, 77.2%, 51.5%)" stroke-width="1.5"></path><path d="M695.16 526.8L789.97 347.3" stroke="hsl(228.5, 77.2%, 51.5%)" stroke-width="1.5"></path><path d="M695.16 526.8L501.89 700.57" stroke="hsl(228.5, 77.2%, 51.5%)" stroke-width="1.5"></path><path d="M812.35 643.53L812.35 643.53" stroke="hsl(228.5, 77.2%, 51.5%)" stroke-width="1.5"></path><path d="M812.35 643.53L849.54 562.16" stroke="hsl(228.5, 77.2%, 51.5%)" stroke-width="1.5"></path><path d="M812.35 643.53L681.91 664.62" stroke="hsl(228.5, 77.2%, 51.5%)" stroke-width="1.5"></path><path d="M812.35 643.53L992.76 672.68" stroke="hsl(228.5, 77.2%, 51.5%)" stroke-width="1.5"></path><path d="M1146.96 90.42L1146.96 90.42" stroke="hsl(228.5, 77.2%, 51.5%)" stroke-width="1.5"></path><path d="M1146.96 90.42L1242.31 83.26" stroke="hsl(228.5, 77.2%, 51.5%)" stroke-width="1.5"></path><path d="M1146.96 90.42L1104.11 217.59" stroke="hsl(228.5, 77.2%, 51.5%)" stroke-width="1.5"></path><path d="M1146.96 90.42L1270.9 -79.6" stroke="hsl(228.5, 77.2%, 51.5%)" stroke-width="1.5"></path><path d="M1146.96 90.42L1396.25 -67.17" stroke="hsl(228.5, 77.2%, 51.5%)" stroke-width="1.5"></path><path d="M1108.29 660.16L1108.29 660.16" stroke="hsl(228.5, 77.2%, 51.5%)" stroke-width="1.5"></path><path d="M1108.29 660.16L992.76 672.68" stroke="hsl(228.5, 77.2%, 51.5%)" stroke-width="1.5"></path><path d="M1108.29 660.16L1120.13 489.03" stroke="hsl(228.5, 77.2%, 51.5%)" stroke-width="1.5"></path><path d="M1108.29 660.16L1011.62 500.79" stroke="hsl(228.5, 77.2%, 51.5%)" stroke-width="1.5"></path><path d="M1108.29 660.16L1241.03 527.84" stroke="hsl(228.5, 77.2%, 51.5%)" stroke-width="1.5"></path><path d="M1108.29 660.16L1302.07 653.85" stroke="hsl(228.5, 77.2%, 51.5%)" stroke-width="1.5"></path><path d="M1396.25 -67.17L1396.25 -67.17" stroke="hsl(228.5, 77.2%, 51.5%)" stroke-width="1.5"></path><path d="M1396.25 -67.17L1270.9 -79.6" stroke="hsl(228.5, 77.2%, 51.5%)" stroke-width="1.5"></path><path d="M1396.25 -67.17L1446.28 105.71" stroke="hsl(228.5, 77.2%, 51.5%)" stroke-width="1.5"></path><path d="M1396.25 -67.17L1598.27 -70.32" stroke="hsl(228.5, 77.2%, 51.5%)" stroke-width="1.5"></path><path d="M1396.25 -67.17L1242.31 83.26" stroke="hsl(228.5, 77.2%, 51.5%)" stroke-width="1.5"></path><path d="M1452.76 510.35L1452.76 510.35" stroke="hsl(228.5, 77.2%, 51.5%)" stroke-width="1.5"></path><path d="M1452.76 510.35L1452.58 402.16" stroke="hsl(228.5, 77.2%, 51.5%)" stroke-width="1.5"></path><path d="M1452.76 510.35L1578.05 531.68" stroke="hsl(228.5, 77.2%, 51.5%)" stroke-width="1.5"></path><path d="M1452.76 510.35L1577.77 402.16" stroke="hsl(228.5, 77.2%, 51.5%)" stroke-width="1.5"></path><path d="M1452.76 510.35L1557.79 653.93" stroke="hsl(228.5, 77.2%, 51.5%)" stroke-width="1.5"></path><path d="M1598.27 -70.32L1598.27 -70.32" stroke="hsl(228.5, 77.2%, 51.5%)" stroke-width="1.5"></path><path d="M1598.27 -70.32L1539.54 105.26" stroke="hsl(228.5, 77.2%, 51.5%)" stroke-width="1.5"></path><path d="M1598.27 -70.32L1446.28 105.71" stroke="hsl(228.5, 77.2%, 51.5%)" stroke-width="1.5"></path><path d="M1598.27 -70.32L1573.18 197.91" stroke="hsl(228.5, 77.2%, 51.5%)" stroke-width="1.5"></path><path d="M1539.54 105.26L1539.54 105.26" stroke="hsl(228.5, 77.2%, 51.5%)" stroke-width="1.5"></path><path d="M1539.54 105.26L1446.28 105.71" stroke="hsl(228.5, 77.2%, 51.5%)" stroke-width="1.5"></path><path d="M1539.54 105.26L1573.18 197.91" stroke="hsl(228.5, 77.2%, 51.5%)" stroke-width="1.5"></path><path d="M1539.54 105.26L1434.75 197.65" stroke="hsl(228.5, 77.2%, 51.5%)" stroke-width="1.5"></path><path d="M1539.54 105.26L1396.25 -67.17" stroke="hsl(228.5, 77.2%, 51.5%)" stroke-width="1.5"></path><path d="M-112.41 535.31L-112.41 535.31" stroke="hsl(228.5, 77.2%, 51.5%)" stroke-width="1.5"></path><path d="M-112.41 535.31L-48.09 651.74" stroke="hsl(228.5, 77.2%, 51.5%)" stroke-width="1.5"></path><path d="M-112.41 535.31L78.39 545.06" stroke="hsl(228.5, 77.2%, 51.5%)" stroke-width="1.5"></path><path d="M-112.41 535.31L58.69 673.26" stroke="hsl(228.5, 77.2%, 51.5%)" stroke-width="1.5"></path><path d="M-112.41 535.31L259.38 557.29" stroke="hsl(228.5, 77.2%, 51.5%)" stroke-width="1.5"></path><path d="M-48.09 651.74L-48.09 651.74" stroke="hsl(228.5, 77.2%, 51.5%)" stroke-width="1.5"></path><path d="M-48.09 651.74L58.69 673.26" stroke="hsl(228.5, 77.2%, 51.5%)" stroke-width="1.5"></path><path d="M-48.09 651.74L78.39 545.06" stroke="hsl(228.5, 77.2%, 51.5%)" stroke-width="1.5"></path><path d="M-48.09 651.74L256.78 681.81" stroke="hsl(228.5, 77.2%, 51.5%)" stroke-width="1.5"></path><path d="M78.39 545.06L78.39 545.06" stroke="hsl(228.5, 77.2%, 51.5%)" stroke-width="1.5"></path><path d="M78.39 545.06L58.69 673.26" stroke="hsl(228.5, 77.2%, 51.5%)" stroke-width="1.5"></path><path d="M78.39 545.06L259.38 557.29" stroke="hsl(228.5, 77.2%, 51.5%)" stroke-width="1.5"></path><path d="M78.39 545.06L342.84 555.61" stroke="hsl(228.5, 77.2%, 51.5%)" stroke-width="1.5"></path><path d="M58.69 673.26L58.69 673.26" stroke="hsl(228.5, 77.2%, 51.5%)" stroke-width="1.5"></path><path d="M259.38 557.29L259.38 557.29" stroke="hsl(228.5, 77.2%, 51.5%)" stroke-width="1.5"></path><path d="M259.38 557.29L342.84 555.61" stroke="hsl(228.5, 77.2%, 51.5%)" stroke-width="1.5"></path><path d="M342.84 555.61L342.84 555.61" stroke="hsl(228.5, 77.2%, 51.5%)" stroke-width="1.5"></path><path d="M342.84 555.61L343.22 650.34" stroke="hsl(228.5, 77.2%, 51.5%)" stroke-width="1.5"></path><path d="M342.84 555.61L501.89 700.57" stroke="hsl(228.5, 77.2%, 51.5%)" stroke-width="1.5"></path><path d="M342.84 555.61L58.69 673.26" stroke="hsl(228.5, 77.2%, 51.5%)" stroke-width="1.5"></path><path d="M343.22 650.34L343.22 650.34" stroke="hsl(228.5, 77.2%, 51.5%)" stroke-width="1.5"></path><path d="M343.22 650.34L259.38 557.29" stroke="hsl(228.5, 77.2%, 51.5%)" stroke-width="1.5"></path><path d="M343.22 650.34L501.89 700.57" stroke="hsl(228.5, 77.2%, 51.5%)" stroke-width="1.5"></path><path d="M501.89 700.57L501.89 700.57" stroke="hsl(228.5, 77.2%, 51.5%)" stroke-width="1.5"></path><path d="M501.89 700.57L681.91 664.62" stroke="hsl(228.5, 77.2%, 51.5%)" stroke-width="1.5"></path><path d="M501.89 700.57L256.78 681.81" stroke="hsl(228.5, 77.2%, 51.5%)" stroke-width="1.5"></path><path d="M681.91 664.62L681.91 664.62" stroke="hsl(228.5, 77.2%, 51.5%)" stroke-width="1.5"></path><path d="M681.91 664.62L849.54 562.16" stroke="hsl(228.5, 77.2%, 51.5%)" stroke-width="1.5"></path><path d="M681.91 664.62L992.76 672.68" stroke="hsl(228.5, 77.2%, 51.5%)" stroke-width="1.5"></path><path d="M681.91 664.62L789.97 347.3" stroke="hsl(228.5, 77.2%, 51.5%)" stroke-width="1.5"></path><path d="M789.97 347.3L789.97 347.3" stroke="hsl(228.5, 77.2%, 51.5%)" stroke-width="1.5"></path><path d="M789.97 347.3L983.83 393.83" stroke="hsl(228.5, 77.2%, 51.5%)" stroke-width="1.5"></path><path d="M789.97 347.3L849.54 562.16" stroke="hsl(228.5, 77.2%, 51.5%)" stroke-width="1.5"></path><path d="M789.97 347.3L1011.62 500.79" stroke="hsl(228.5, 77.2%, 51.5%)" stroke-width="1.5"></path><path d="M849.54 562.16L849.54 562.16" stroke="hsl(228.5, 77.2%, 51.5%)" stroke-width="1.5"></path><path d="M849.54 562.16L1011.62 500.79" stroke="hsl(228.5, 77.2%, 51.5%)" stroke-width="1.5"></path><path d="M849.54 562.16L992.76 672.68" stroke="hsl(228.5, 77.2%, 51.5%)" stroke-width="1.5"></path><path d="M849.54 562.16L983.83 393.83" stroke="hsl(228.5, 77.2%, 51.5%)" stroke-width="1.5"></path><path d="M983.83 393.83L983.83 393.83" stroke="hsl(228.5, 77.2%, 51.5%)" stroke-width="1.5"></path><path d="M983.83 393.83L1011.62 500.79" stroke="hsl(228.5, 77.2%, 51.5%)" stroke-width="1.5"></path><path d="M983.83 393.83L1120.13 489.03" stroke="hsl(228.5, 77.2%, 51.5%)" stroke-width="1.5"></path><path d="M983.83 393.83L1157.98 394.79" stroke="hsl(228.5, 77.2%, 51.5%)" stroke-width="1.5"></path><path d="M983.83 393.83L1104.11 217.59" stroke="hsl(228.5, 77.2%, 51.5%)" stroke-width="1.5"></path><path d="M1011.62 500.79L1011.62 500.79" stroke="hsl(228.5, 77.2%, 51.5%)" stroke-width="1.5"></path><path d="M1011.62 500.79L1120.13 489.03" stroke="hsl(228.5, 77.2%, 51.5%)" stroke-width="1.5"></path><path d="M992.76 672.68L992.76 672.68" stroke="hsl(228.5, 77.2%, 51.5%)" stroke-width="1.5"></path><path d="M992.76 672.68L1011.62 500.79" stroke="hsl(228.5, 77.2%, 51.5%)" stroke-width="1.5"></path><path d="M1104.11 217.59L1104.11 217.59" stroke="hsl(228.5, 77.2%, 51.5%)" stroke-width="1.5"></path><path d="M1104.11 217.59L1157.98 394.79" stroke="hsl(228.5, 77.2%, 51.5%)" stroke-width="1.5"></path><path d="M1157.98 394.79L1157.98 394.79" stroke="hsl(228.5, 77.2%, 51.5%)" stroke-width="1.5"></path><path d="M1157.98 394.79L1120.13 489.03" stroke="hsl(228.5, 77.2%, 51.5%)" stroke-width="1.5"></path><path d="M1157.98 394.79L1309.35 394.82" stroke="hsl(228.5, 77.2%, 51.5%)" stroke-width="1.5"></path><path d="M1157.98 394.79L1241.03 527.84" stroke="hsl(228.5, 77.2%, 51.5%)" stroke-width="1.5"></path><path d="M1157.98 394.79L1011.62 500.79" stroke="hsl(228.5, 77.2%, 51.5%)" stroke-width="1.5"></path><path d="M1120.13 489.03L1120.13 489.03" stroke="hsl(228.5, 77.2%, 51.5%)" stroke-width="1.5"></path><path d="M1270.9 -79.6L1270.9 -79.6" stroke="hsl(228.5, 77.2%, 51.5%)" stroke-width="1.5"></path><path d="M1270.9 -79.6L1242.31 83.26" stroke="hsl(228.5, 77.2%, 51.5%)" stroke-width="1.5"></path><path d="M1270.9 -79.6L1446.28 105.71" stroke="hsl(228.5, 77.2%, 51.5%)" stroke-width="1.5"></path><path d="M1242.31 83.26L1242.31 83.26" stroke="hsl(228.5, 77.2%, 51.5%)" stroke-width="1.5"></path><path d="M1242.31 83.26L1104.11 217.59" stroke="hsl(228.5, 77.2%, 51.5%)" stroke-width="1.5"></path><path d="M1242.31 83.26L1446.28 105.71" stroke="hsl(228.5, 77.2%, 51.5%)" stroke-width="1.5"></path><path d="M1309.35 394.82L1309.35 394.82" stroke="hsl(228.5, 77.2%, 51.5%)" stroke-width="1.5"></path><path d="M1309.35 394.82L1452.58 402.16" stroke="hsl(228.5, 77.2%, 51.5%)" stroke-width="1.5"></path><path d="M1309.35 394.82L1241.03 527.84" stroke="hsl(228.5, 77.2%, 51.5%)" stroke-width="1.5"></path><path d="M1309.35 394.82L1452.76 510.35" stroke="hsl(228.5, 77.2%, 51.5%)" stroke-width="1.5"></path><path d="M1309.35 394.82L1120.13 489.03" stroke="hsl(228.5, 77.2%, 51.5%)" stroke-width="1.5"></path><path d="M1309.35 394.82L1434.75 197.65" stroke="hsl(228.5, 77.2%, 51.5%)" stroke-width="1.5"></path><path d="M1241.03 527.84L1241.03 527.84" stroke="hsl(228.5, 77.2%, 51.5%)" stroke-width="1.5"></path><path d="M1241.03 527.84L1120.13 489.03" stroke="hsl(228.5, 77.2%, 51.5%)" stroke-width="1.5"></path><path d="M1302.07 653.85L1302.07 653.85" stroke="hsl(228.5, 77.2%, 51.5%)" stroke-width="1.5"></path><path d="M1302.07 653.85L1241.03 527.84" stroke="hsl(228.5, 77.2%, 51.5%)" stroke-width="1.5"></path><path d="M1302.07 653.85L1452.76 510.35" stroke="hsl(228.5, 77.2%, 51.5%)" stroke-width="1.5"></path><path d="M1302.07 653.85L1120.13 489.03" stroke="hsl(228.5, 77.2%, 51.5%)" stroke-width="1.5"></path><path d="M1302.07 653.85L1557.79 653.93" stroke="hsl(228.5, 77.2%, 51.5%)" stroke-width="1.5"></path><path d="M1302.07 653.85L1309.35 394.82" stroke="hsl(228.5, 77.2%, 51.5%)" stroke-width="1.5"></path><path d="M1446.28 105.71L1446.28 105.71" stroke="hsl(228.5, 77.2%, 51.5%)" stroke-width="1.5"></path><path d="M1446.28 105.71L1434.75 197.65" stroke="hsl(228.5, 77.2%, 51.5%)" stroke-width="1.5"></path><path d="M1446.28 105.71L1573.18 197.91" stroke="hsl(228.5, 77.2%, 51.5%)" stroke-width="1.5"></path><path d="M1434.75 197.65L1434.75 197.65" stroke="hsl(228.5, 77.2%, 51.5%)" stroke-width="1.5"></path><path d="M1434.75 197.65L1573.18 197.91" stroke="hsl(228.5, 77.2%, 51.5%)" stroke-width="1.5"></path><path d="M1452.58 402.16L1452.58 402.16" stroke="hsl(228.5, 77.2%, 51.5%)" stroke-width="1.5"></path><path d="M1452.58 402.16L1577.77 402.16" stroke="hsl(228.5, 77.2%, 51.5%)" stroke-width="1.5"></path><path d="M1452.58 402.16L1578.05 531.68" stroke="hsl(228.5, 77.2%, 51.5%)" stroke-width="1.5"></path><path d="M1573.18 197.91L1573.18 197.91" stroke="hsl(228.5, 77.2%, 51.5%)" stroke-width="1.5"></path><path d="M1577.77 402.16L1577.77 402.16" stroke="hsl(228.5, 77.2%, 51.5%)" stroke-width="1.5"></path><path d="M1578.05 531.68L1578.05 531.68" stroke="hsl(228.5, 77.2%, 51.5%)" stroke-width="1.5"></path><path d="M1578.05 531.68L1557.79 653.93" stroke="hsl(228.5, 77.2%, 51.5%)" stroke-width="1.5"></path><path d="M1578.05 531.68L1577.77 402.16" stroke="hsl(228.5, 77.2%, 51.5%)" stroke-width="1.5"></path><path d="M1557.79 653.93L1557.79 653.93" stroke="hsl(228.5, 77.2%, 51.5%)" stroke-width="1.5"></path><path d="M1557.79 653.93L1577.77 402.16" stroke="hsl(228.5, 77.2%, 51.5%)" stroke-width="1.5"></path><circle r="25" cx="256.78" cy="681.81" fill="url(&quot;#SvgjsRadialGradient1001&quot;)"></circle><circle r="25" cx="695.16" cy="526.8" fill="url(&quot;#SvgjsRadialGradient1001&quot;)"></circle><circle r="25" cx="812.35" cy="643.53" fill="url(&quot;#SvgjsRadialGradient1001&quot;)"></circle><circle r="25" cx="1146.96" cy="90.42" fill="url(&quot;#SvgjsRadialGradient1001&quot;)"></circle><circle r="25" cx="1108.29" cy="660.16" fill="url(&quot;#SvgjsRadialGradient1001&quot;)"></circle><circle r="25" cx="1396.25" cy="-67.17" fill="url(&quot;#SvgjsRadialGradient1001&quot;)"></circle><circle r="25" cx="1452.76" cy="510.35" fill="url(&quot;#SvgjsRadialGradient1001&quot;)"></circle><circle r="25" cx="1598.27" cy="-70.32" fill="url(&quot;#SvgjsRadialGradient1001&quot;)"></circle><circle r="25" cx="1539.54" cy="105.26" fill="url(&quot;#SvgjsRadialGradient1001&quot;)"></circle><circle r="5" cx="-112.41" cy="535.31" fill="#8b9ad9"></circle><circle r="5" cx="-48.09" cy="651.74" fill="#8b9ad9"></circle><circle r="5" cx="78.39" cy="545.06" fill="#8b9ad9"></circle><circle r="5" cx="58.69" cy="673.26" fill="#8b9ad9"></circle><circle r="5" cx="259.38" cy="557.29" fill="#8b9ad9"></circle><circle r="5" cx="342.84" cy="555.61" fill="#8b9ad9"></circle><circle r="5" cx="343.22" cy="650.34" fill="#8b9ad9"></circle><circle r="5" cx="501.89" cy="700.57" fill="#8b9ad9"></circle><circle r="5" cx="681.91" cy="664.62" fill="#8b9ad9"></circle><circle r="5" cx="789.97" cy="347.3" fill="#8b9ad9"></circle><circle r="5" cx="849.54" cy="562.16" fill="#8b9ad9"></circle><circle r="5" cx="983.83" cy="393.83" fill="#8b9ad9"></circle><circle r="5" cx="1011.62" cy="500.79" fill="#8b9ad9"></circle><circle r="5" cx="992.76" cy="672.68" fill="#8b9ad9"></circle><circle r="5" cx="1104.11" cy="217.59" fill="#8b9ad9"></circle><circle r="5" cx="1157.98" cy="394.79" fill="#8b9ad9"></circle><circle r="5" cx="1120.13" cy="489.03" fill="#8b9ad9"></circle><circle r="5" cx="1270.9" cy="-79.6" fill="#8b9ad9"></circle><circle r="5" cx="1242.31" cy="83.26" fill="#8b9ad9"></circle><circle r="5" cx="1309.35" cy="394.82" fill="#8b9ad9"></circle><circle r="5" cx="1241.03" cy="527.84" fill="#8b9ad9"></circle><circle r="5" cx="1302.07" cy="653.85" fill="#8b9ad9"></circle><circle r="5" cx="1446.28" cy="105.71" fill="#8b9ad9"></circle><circle r="5" cx="1434.75" cy="197.65" fill="#8b9ad9"></circle><circle r="5" cx="1452.58" cy="402.16" fill="#8b9ad9"></circle><circle r="5" cx="1573.18" cy="197.91" fill="#8b9ad9"></circle><circle r="5" cx="1577.77" cy="402.16" fill="#8b9ad9"></circle><circle r="5" cx="1578.05" cy="531.68" fill="#8b9ad9"></circle><circle r="5" cx="1557.79" cy="653.93" fill="#8b9ad9"></circle></g><defs><mask id="SvgjsMask1000"><rect width="1440" height="560" fill="#ffffff"></rect></mask><radialGradient id="SvgjsRadialGradient1001"><stop stop-color="#ffffff" offset="0.1"></stop><stop stop-color="#1735b3" offset="0.2"></stop><stop stop-color="rgba(23, 53, 179, 0)" offset="1"></stop></radialGradient></defs></svg>