<svg xmlns="http://www.w3.org/2000/svg" version="1.1" xmlns:xlink="http://www.w3.org/1999/xlink" xmlns:svgjs="http://svgjs.dev/svgjs" width="1440" height="560" preserveAspectRatio="none" viewBox="0 0 1440 560"><g mask="url(&quot;#SvgjsMask1006&quot;)" fill="none"><rect width="1440" height="560" x="0" y="0" fill="#0e2a47"></rect><path d="M803.52 86.06L830.39 86.06L830.39 112.93L803.52 112.93z" fill="#d3b714"></path><path d="M1224.25 504.18a3.62 3.62 0 1 0 7.22 0.42z" fill="#d3b714"></path><path d="M1311.7 349.69a8.39 8.39 0 1 0 12.12 11.61z" fill="#037b0b"></path><path d="M346.21 513.99a21 21 0 1 0-35.46 22.51z" stroke="#d3b714"></path><path d="M759.2 556.53a40.36 40.36 0 1 0 70.48-39.35z" fill="#037b0b"></path><path d="M1313.91 304.75L1368.93 304.75L1368.93 359.77L1313.91 359.77z" stroke="#d3b714"></path><path d="M209.36 442.38 a29.15 29.15 0 1 0 58.3 0 a29.15 29.15 0 1 0 -58.3 0z" stroke="#037b0b"></path><path d="M422.72 327.77L441.65 327.77L441.65 346.7L422.72 346.7z" stroke="#d3b714"></path><path d="M785.9 372.96 a39.35 39.35 0 1 0 78.7 0 a39.35 39.35 0 1 0 -78.7 0z" stroke="#037b0b"></path><path d="M180.27 462.22L220.12 462.22L220.12 502.07L180.27 502.07z" stroke="#d3b714"></path><path d="M1110.84 76.14a36.71 36.71 0 1 0-71.09-18.32z" stroke="#d3b714"></path><path d="M1278.29 533.6L1299.32 533.6L1299.32 585.17L1278.29 585.17z" stroke="#037b0b"></path><path d="M635.26 525.79L656.87 525.79L656.87 547.4L635.26 547.4z" stroke="#d3b714"></path><path d="M1476.71 273.41a42.54 42.54 0 1 0-83.03 18.53z" stroke="#037b0b"></path><path d="M1454.57 515.48a34.72 34.72 0 1 0-65.2-23.9z" fill="#037b0b"></path><path d="M171.62 474.61L214.36 474.61L214.36 517.35L171.62 517.35z" stroke="#d3b714"></path><path d="M765.45 441.53 a50.62 50.62 0 1 0 101.24 0 a50.62 50.62 0 1 0 -101.24 0z" stroke="#d3b714"></path><path d="M617.04 310.75L625.59 310.75L625.59 319.3L617.04 319.3z" stroke="#037b0b"></path><path d="M693.05 249.7L723.85 249.7L723.85 280.5L693.05 280.5z" fill="#d3b714"></path><path d="M832.72 171.27a43.53 43.53 0 1 0 14.89-85.78z" fill="#d3b714"></path><path d="M213.33 271.88L238.56 271.88L238.56 311.79L213.33 311.79z" fill="#037b0b"></path><path d="M621.49 383.5L623.85 383.5L623.85 418.47L621.49 418.47z" stroke="#d3b714"></path><path d="M1225.02 94.87a43.42 43.42 0 1 0-85.26 16.48z" stroke="#037b0b"></path><path d="M20.12 90.95 a48.82 48.82 0 1 0 97.64 0 a48.82 48.82 0 1 0 -97.64 0z" stroke="#d3b714"></path><path d="M253.7 34.56L260.34 34.56L260.34 57.09L253.7 57.09z" stroke="#d3b714"></path><path d="M525.06 220.17L538.03 220.17L538.03 238.35L525.06 238.35z" fill="#037b0b"></path><path d="M87.35 526.99 a11.27 11.27 0 1 0 22.54 0 a11.27 11.27 0 1 0 -22.54 0z" stroke="#037b0b"></path><path d="M977.68 13.65L991.44 13.65L991.44 61.18L977.68 61.18z" fill="#037b0b"></path><path d="M203.58 536.5a27.1 27.1 0 1 0 52.18 14.66z" fill="#d3b714"></path><path d="M1365.57 378.39L1408.48 378.39L1408.48 400.08L1365.57 400.08z" fill="#d3b714"></path><path d="M640.99 183.28L689.08 183.28L689.08 231.37L640.99 231.37z" stroke="#d3b714"></path><path d="M773.67 373.06a26.51 26.51 0 1 0 40.62-34.09z" fill="#037b0b"></path><path d="M797.25 166.73L813.29 166.73L813.29 182.77L797.25 182.77z" fill="#d3b714"></path></g><defs><mask id="SvgjsMask1006"><rect width="1440" height="560" fill="#ffffff"></rect></mask></defs></svg>